# xmcd CD database file
#
# Track frame offsets:
#	150
#	24012
#	47395
#	65490
#
# Disc length: 1227 seconds
#
# Revision: 0
# Processed by: cddbd v1.5.1PL0 Copyright (c) Steve Scherf et al.
# Submitted via: CDex 1.51
#
DISCID=2304c904
DTITLE=高橋徹也 - チャイナ・カフェ
DYEAR=1997
DGENRE=Rock
TTITLE0=ナイトクラブ
TTITLE1=チャイナ・カフェ
TTITLE2=最高の笑顔
TTITLE3=ナイトフライト
EXTD=YEAR: 1997
EXTT0=
EXTT1=
EXTT2=
EXTT3=
PLAYORDER=
